<svg width="26" height="26" viewBox="0 0 26 26" fill="none" xmlns="http://www.w3.org/2000/svg">
<g clip-path="url(#clip0_1_2)">
<path d="M25.3231 23.0621L18.7417 16.4778C18.8622 16.3204 18.9783 16.1595 19.0895 15.9949C19.6299 15.1947 20.0584 14.3113 20.3517 13.3678C20.645 12.4245 20.8028 11.4211 20.8027 10.3855C20.803 9.00456 20.5222 7.68148 20.0142 6.48058C19.252 4.6786 17.9827 3.14996 16.3832 2.06859C15.5835 1.52795 14.7004 1.09927 13.7574 0.805858C12.8146 0.512445 11.8115 0.354624 10.7764 0.354706C9.39606 0.354459 8.07349 0.635359 6.87321 1.14356C5.07204 1.90608 3.544 3.17597 2.4632 4.77616C1.9228 5.5763 1.49431 6.45975 1.20103 7.40322C0.907668 8.34652 0.749918 9.35 0.75 10.3856C0.749753 11.7665 1.03053 13.0896 1.5385 14.2904C2.30068 16.0924 3.57008 17.6211 5.16947 18.7024C5.96933 19.2431 6.85231 19.6718 7.79535 19.9652C8.73823 20.2587 9.74127 20.4165 10.7764 20.4164C12.1567 20.4166 13.4792 20.1357 14.6795 19.6275C15.3825 19.3299 16.0437 18.9547 16.6531 18.513L23.2616 25.1244C23.8308 25.6939 24.7538 25.694 25.3231 25.1244C25.8923 24.555 25.8924 23.6316 25.3231 23.0621ZM12.8916 17.1802C12.2245 17.3877 11.5159 17.4997 10.7764 17.4998C9.79048 17.4996 8.85887 17.3007 8.0089 16.9413C6.73463 16.4024 5.64593 15.4983 4.87891 14.3622C4.49535 13.7942 4.1922 13.1687 3.98474 12.5016C3.77737 11.8343 3.66538 11.1254 3.66529 10.3855C3.66554 9.39923 3.86427 8.46713 4.22355 7.61677C4.76222 6.34194 5.66585 5.25275 6.80153 4.48538C7.36925 4.10166 7.99441 3.79836 8.66121 3.59082C9.32825 3.38335 10.0369 3.27131 10.7764 3.27122C11.7622 3.27147 12.6939 3.47029 13.5439 3.82973C14.8182 4.36864 15.9069 5.27267 16.6739 6.40887C17.0574 6.97693 17.3606 7.60228 17.568 8.26938C17.7754 8.93672 17.8874 9.64564 17.8875 10.3855C17.8873 11.3718 17.6885 12.3039 17.3292 13.1543C16.7906 14.4291 15.8869 15.5183 14.7513 16.2856C14.1835 16.6694 13.5584 16.9727 12.8916 17.1802Z" fill="#FF6F13"/>
</g>
<defs>
<clipPath id="clip0_1_2">
<rect width="26" height="26" fill="white"/>
</clipPath>
</defs>
</svg>
