<svg width="231" height="51" viewBox="0 0 231 51" fill="none" xmlns="http://www.w3.org/2000/svg">
<g clip-path="url(#clip0_16_59)">
<path d="M133.513 30.6962C127.366 30.6962 122.361 25.6913 122.361 19.5436C122.361 13.3959 127.366 8.39093 133.513 8.39093C136.016 8.39093 138.383 9.20098 140.356 10.7343C141.498 11.6215 141.706 13.2705 140.818 14.4181C139.931 15.5608 138.282 15.7682 137.135 14.881C136.093 14.0709 134.839 13.6418 133.513 13.6418C130.259 13.6418 127.612 16.2889 127.612 19.5436C127.612 22.7982 130.259 25.4454 133.513 25.4454C135.828 25.4454 137.834 24.1097 138.803 22.1666H134.994C133.542 22.1666 132.371 20.9901 132.371 19.5436C132.371 18.0971 133.547 16.9206 134.994 16.9206H142.043C143.494 16.9206 144.666 18.0971 144.666 19.5436C144.666 25.6913 139.661 30.6962 133.513 30.6962Z" fill="#A8A89D"/>
<path d="M161.2 30.0742C153.191 30.0742 146.677 23.5601 146.677 15.556C146.677 7.55196 153.191 1.03299 161.2 1.03299C164.459 1.03299 167.536 2.08895 170.106 4.08514C171.248 4.97234 171.456 6.62619 170.568 7.76894C169.681 8.91651 168.027 9.11902 166.885 8.23182C165.245 6.95889 163.283 6.28867 161.2 6.28867C156.089 6.28867 151.928 10.445 151.928 15.5608C151.928 20.6767 156.089 24.8282 161.2 24.8282C165.4 24.8282 168.958 22.022 170.091 18.1839H163.263C161.812 18.1839 160.64 17.0074 160.64 15.5608C160.64 14.1143 161.817 12.9378 163.263 12.9378H173.095C174.546 12.9378 175.718 14.1143 175.718 15.5608C175.718 23.5697 169.204 30.0791 161.195 30.0791L161.2 30.0742Z" fill="#00AEEF"/>
<path d="M2.87381 31C1.49962 31 0.347232 29.9344 0.255619 28.5457C0.17365 27.2583 -0.520679 15.7923 0.79083 10.527L0.805295 10.4643C2.06377 4.86144 7.14104 0.801544 12.8885 0.801544C19.7209 0.801544 25.2755 6.35617 25.2755 13.1886C25.2755 17.1472 23.4095 20.6767 20.5117 22.9477L25.5166 24.5726C26.8956 25.0211 27.6478 26.5013 27.2042 27.8803C26.7558 29.2594 25.2755 30.0115 23.8965 29.5679L11.3408 25.4888C10.1353 25.0982 9.38314 23.9024 9.54708 22.6488C9.71102 21.3951 10.7525 20.4356 12.0158 20.3729L12.7535 20.3343C12.7969 20.3343 12.8451 20.3343 12.8885 20.3343C16.8231 20.3343 20.0295 17.1327 20.0295 13.1982C20.0295 9.26367 16.8279 6.06204 12.8885 6.06204C9.56637 6.06204 6.63476 8.41504 5.92114 11.6552C5.9115 11.689 5.90668 11.7227 5.89703 11.7565L5.87775 11.8385C4.94233 15.5946 5.28468 24.9391 5.49683 28.2179C5.58844 29.6644 4.49391 30.9132 3.0474 31.0048C2.98954 31.0048 2.93168 31.0096 2.87381 31.0096V31Z" fill="#034EA2"/>
<path d="M102.539 30.5805C101.087 30.5805 99.9158 29.404 99.9158 27.9575V11.689C99.9158 10.6234 100.557 9.66389 101.546 9.25887C102.529 8.85384 103.662 9.08528 104.41 9.84229L115.784 21.3759V11.7469C115.784 10.2955 116.961 9.12386 118.407 9.12386C119.854 9.12386 121.03 10.3004 121.03 11.7469V27.7743C121.03 28.8399 120.389 29.7994 119.4 30.2044C118.417 30.6095 117.284 30.378 116.536 29.6162L105.162 18.0874V27.9527C105.162 29.404 103.985 30.5757 102.539 30.5757V30.5805Z" fill="#A8A89D"/>
<path d="M95.0265 30.5805C93.5752 30.5805 92.3987 29.404 92.3987 27.9575V11.7613C92.3987 10.31 93.5752 9.13831 95.0265 9.13831C96.4779 9.13831 97.6495 10.3148 97.6495 11.7613V27.9575C97.6495 29.4088 96.473 30.5805 95.0265 30.5805Z" fill="#A8A89D"/>
<path d="M80.5612 30.7203C79.1099 30.7203 77.9334 29.5438 77.9334 28.0973C77.9334 26.6508 79.1099 25.4743 80.5612 25.4743C83.4591 25.4743 85.8169 23.1165 85.8169 20.2186C85.8169 17.1665 83.2373 14.2831 80.5082 14.2831H76.0336V28.0298C76.0336 29.4812 74.8571 30.6528 73.4106 30.6528C71.9641 30.6528 70.7876 29.4763 70.7876 28.0298V11.6552C70.7876 10.2087 71.9641 9.03223 73.4106 9.03223H80.513C86.14 9.03223 91.0726 14.259 91.0726 20.2186C91.0726 26.1783 86.3618 30.7252 80.5661 30.7252L80.5612 30.7203Z" fill="#F28396"/>
<path d="M58.3429 30.6769C56.8964 30.6769 55.7199 29.5053 55.7151 28.0587C55.7151 26.6074 56.8868 25.4309 58.3381 25.4309H62.5861L58.0054 17.1472L51.4189 29.2931C50.7294 30.566 49.1334 31.0434 47.8605 30.3491C46.5828 29.6596 46.115 28.0636 46.8046 26.7906L55.6765 10.4305C56.1346 9.58673 57.0121 9.06116 57.9717 9.05634H57.9813C58.936 9.05634 59.8136 9.57226 60.2764 10.4112L69.3316 26.7713C69.7801 27.5862 69.7656 28.5747 69.2979 29.3751C68.8254 30.1755 67.9671 30.6673 67.0365 30.6673L58.3429 30.6818V30.6769Z" fill="#FAA61A"/>
<path d="M187.855 31.1206C186.409 31.1206 185.232 29.9489 185.232 28.5024C185.232 27.0511 186.404 25.8746 187.851 25.8746H192.098L187.518 17.5909L180.931 29.7368C180.242 31.0097 178.646 31.4871 177.373 30.7927C176.1 30.1032 175.628 28.5072 176.317 27.2343L185.189 10.8742C185.647 10.0304 186.525 9.50482 187.484 9.5H187.494C188.448 9.5 189.331 10.0159 189.794 10.8549L198.849 27.215C199.297 28.0299 199.283 29.0183 198.815 29.8187C198.343 30.6191 197.484 31.111 196.559 31.111L187.865 31.1254H187.86L187.855 31.1206Z" fill="#A8A89D"/>
<path d="M42.8024 25.4647H37.6721C35.2613 25.4647 33.2072 23.9121 32.4502 21.7568H43.0098C44.4611 21.7568 45.6328 20.5803 45.6328 19.1337C45.6328 17.6872 44.4563 16.5107 43.0098 16.5107H33.3229C34.3355 15.2233 35.9074 14.394 37.6673 14.394H42.8892C44.3406 14.394 45.5122 13.2175 45.5122 11.771C45.5122 10.3244 44.3357 9.14795 42.8892 9.14795H37.6673C31.7221 9.14795 26.8811 13.989 26.8811 19.9341C26.8811 25.8793 31.7221 30.7203 37.6673 30.7203H42.7976C44.249 30.7203 45.4206 29.5438 45.4206 28.0973C45.4206 26.6508 44.2441 25.4743 42.7976 25.4743L42.8024 25.4647Z" fill="#8FC851"/>
<path d="M225.637 25.5177H220.507C218.4 25.5177 216.568 24.3364 215.632 22.6054H225.845C227.296 22.6054 228.468 21.4289 228.468 19.9775C228.468 18.5262 227.291 17.3545 225.845 17.3545H215.632C216.568 15.6235 218.4 14.4422 220.507 14.4422H225.729C227.18 14.4422 228.352 13.2657 228.352 11.8144C228.352 10.363 227.175 9.19135 225.729 9.19135H220.507C214.557 9.19135 209.721 14.0275 209.721 19.9775C209.721 25.9275 214.562 30.7637 220.507 30.7637H225.637C227.089 30.7637 228.26 29.5872 228.26 28.1359C228.26 26.6846 227.084 25.5129 225.637 25.5129V25.5177Z" fill="#A8A89D"/>
<path d="M208.303 9.16241H194.04C192.589 9.16241 191.417 10.3389 191.417 11.7903C191.417 13.2416 192.594 14.4133 194.04 14.4133H198.684V28.0202C198.684 29.4715 199.86 30.6432 201.307 30.6432C202.753 30.6432 203.93 29.4667 203.93 28.0202V14.4133H208.303C209.755 14.4133 210.926 13.2368 210.926 11.7903C210.926 10.3437 209.75 9.16241 208.303 9.16241Z" fill="#A8A89D"/>
</g>
<path d="M167.903 50.924C165.962 50.924 164.234 50.5293 162.719 49.74C161.226 48.972 160.053 47.8307 159.199 46.316C158.367 44.78 157.951 42.9027 157.951 40.684C157.951 39.3613 158.122 38.0387 158.463 36.716C158.805 35.3933 159.263 34.124 159.839 32.908C160.437 31.692 161.098 30.572 161.823 29.548C161.503 28.268 161.343 26.8813 161.343 25.388C161.343 24.2573 161.471 23.18 161.727 22.156C161.813 21.8573 161.962 21.708 162.175 21.708C162.346 21.708 162.421 21.8147 162.399 22.028C162.335 22.4547 162.282 22.9133 162.239 23.404C162.197 23.8733 162.175 24.4387 162.175 25.1C162.175 26.3373 162.293 27.5107 162.527 28.62C162.741 28.3427 162.954 28.0867 163.167 27.852C164.042 26.892 165.077 25.996 166.271 25.164C167.466 24.3107 168.789 23.628 170.239 23.116C171.711 22.604 173.269 22.348 174.911 22.348C176.447 22.348 177.855 22.636 179.135 23.212C180.415 23.7667 181.439 24.5773 182.207 25.644C182.997 26.6893 183.391 27.9587 183.391 29.452C183.391 30.3907 183.135 31.3507 182.623 32.332C182.133 33.3133 181.418 34.22 180.479 35.052C179.562 35.8627 178.442 36.524 177.119 37.036C175.818 37.548 174.357 37.804 172.735 37.804C170.602 37.804 168.65 37.3347 166.879 36.396C165.109 35.4573 163.733 34.028 162.751 32.108C161.898 33.6227 161.269 35.1587 160.863 36.716C160.458 38.2733 160.255 39.756 160.255 41.164C160.255 43.212 160.597 44.876 161.279 46.156C161.962 47.436 162.901 48.3747 164.095 48.972C165.311 49.5907 166.698 49.9 168.255 49.9C171.029 49.9 173.461 49.196 175.551 47.788C177.663 46.4013 179.402 44.2467 180.767 41.324C181.023 41.324 181.151 41.42 181.151 41.612C179.829 44.7693 178.015 47.1053 175.711 48.62C173.429 50.156 170.826 50.924 167.903 50.924ZM164.127 29.964C163.85 30.348 163.583 30.7427 163.327 31.148C164.074 32.8973 165.215 34.3053 166.751 35.372C168.287 36.4387 170.218 36.972 172.543 36.972C174.015 36.972 175.327 36.748 176.479 36.3C177.653 35.852 178.634 35.2547 179.423 34.508C180.234 33.7613 180.853 32.94 181.279 32.044C181.706 31.1267 181.919 30.2093 181.919 29.292C181.919 28.1613 181.61 27.1693 180.991 26.316C180.394 25.4627 179.573 24.8013 178.527 24.332C177.482 23.8413 176.298 23.596 174.975 23.596C173.653 23.596 172.319 23.8733 170.975 24.428C169.653 24.9827 168.394 25.74 167.199 26.7C166.026 27.66 165.002 28.748 164.127 29.964ZM186.107 47.596C185.616 47.596 185.179 47.4573 184.795 47.18C184.432 46.9027 184.251 46.3373 184.251 45.484C184.251 45.1213 184.272 44.78 184.315 44.46C184.379 44.14 184.454 43.7987 184.539 43.436C184.347 43.756 184.08 44.1507 183.739 44.62C183.398 45.0893 183.014 45.548 182.587 45.996C182.182 46.444 181.755 46.8173 181.307 47.116C180.88 47.4147 180.475 47.564 180.091 47.564C179.536 47.564 179.088 47.3187 178.747 46.828C178.406 46.316 178.235 45.6547 178.235 44.844C178.235 43.9693 178.438 43.0307 178.843 42.028C179.248 41.0253 179.803 40.0653 180.507 39.148C181.211 38.2307 182.022 37.484 182.939 36.908C183.856 36.332 184.816 36.044 185.819 36.044C186.31 36.044 186.779 36.1293 187.227 36.3C187.675 36.4493 188.07 36.7053 188.411 37.068C188.56 37.2173 188.635 37.388 188.635 37.58C188.635 37.708 188.582 37.8147 188.475 37.9C188.368 37.9853 188.23 38.0067 188.059 37.964C187.824 37.2173 187.323 36.844 186.555 36.844C186.192 36.844 185.776 36.9613 185.307 37.196C184.731 37.4947 184.112 37.9747 183.451 38.636C182.811 39.276 182.203 40.012 181.627 40.844C181.072 41.6547 180.614 42.476 180.251 43.308C179.888 44.14 179.707 44.8973 179.707 45.58C179.707 46.284 179.974 46.636 180.507 46.636C180.976 46.636 181.456 46.412 181.947 45.964C182.459 45.516 182.939 44.9613 183.387 44.3C183.856 43.6173 184.283 42.9453 184.667 42.284C185.051 41.6227 185.35 41.0893 185.563 40.684C185.883 40.108 186.182 39.628 186.459 39.244C186.736 38.86 187.131 38.668 187.643 38.668C187.878 38.668 188.112 38.7 188.347 38.764C188.582 38.828 188.827 38.8387 189.083 38.796C188.443 39.436 187.878 40.1933 187.387 41.068C186.918 41.9427 186.555 42.8067 186.299 43.66C186.043 44.492 185.915 45.196 185.915 45.772C185.915 46.412 186.128 46.732 186.555 46.732C186.896 46.732 187.259 46.54 187.643 46.156C188.048 45.772 188.432 45.292 188.795 44.716C189.179 44.1187 189.531 43.5213 189.851 42.924C190.171 42.3053 190.427 41.772 190.619 41.324C190.726 41.324 190.811 41.3347 190.875 41.356C190.96 41.3773 191.003 41.4627 191.003 41.612C190.982 41.6973 190.939 41.7933 190.875 41.9C190.832 41.9853 190.758 42.1453 190.651 42.38C190.48 42.7213 190.246 43.18 189.947 43.756C189.648 44.332 189.296 44.9187 188.891 45.516C188.486 46.092 188.048 46.5827 187.579 46.988C187.11 47.3933 186.619 47.596 186.107 47.596ZM185.96 47.756C186.728 46.1987 187.464 44.6627 188.168 43.148C188.872 41.612 189.597 40.1507 190.344 38.764C190.77 37.996 191.133 37.4627 191.432 37.164C191.73 36.844 192.125 36.684 192.616 36.684C192.786 36.684 192.968 36.716 193.16 36.78C193.352 36.8227 193.544 36.844 193.736 36.844C193.864 36.844 193.96 36.8333 194.024 36.812C193.725 36.9827 193.33 37.4093 192.84 38.092C192.37 38.7533 191.89 39.5213 191.4 40.396C190.909 41.2707 190.472 42.092 190.088 42.86C190.493 42.3693 190.92 41.8787 191.368 41.388C191.816 40.8973 192.306 40.428 192.84 39.98C193.352 39.532 193.96 39.0733 194.664 38.604C195.389 38.1133 196.093 37.708 196.776 37.388C197.458 37.068 198.002 36.908 198.408 36.908C198.557 36.908 198.664 36.9187 198.728 36.94C198.728 36.94 198.61 37.1533 198.376 37.58C198.141 37.9853 197.842 38.5293 197.48 39.212C197.138 39.8733 196.786 40.588 196.424 41.356C196.061 42.1027 195.73 42.828 195.432 43.532C195.154 44.2147 194.973 44.7907 194.888 45.26C194.824 45.5373 194.792 45.7933 194.792 46.028C194.792 46.3693 194.856 46.5933 194.984 46.7C195.112 46.8067 195.25 46.86 195.4 46.86C195.805 46.86 196.221 46.6787 196.648 46.316C197.074 45.9533 197.48 45.4947 197.864 44.94C198.269 44.364 198.642 43.756 198.984 43.116C199.325 42.476 199.613 41.8787 199.848 41.324C200.104 41.324 200.232 41.42 200.232 41.612C199.997 42.188 199.698 42.828 199.336 43.532C198.994 44.2147 198.6 44.8653 198.152 45.484C197.725 46.1027 197.245 46.6147 196.712 47.02C196.178 47.4253 195.602 47.628 194.984 47.628C194.557 47.628 194.109 47.4787 193.64 47.18C193.192 46.8813 192.968 46.3267 192.968 45.516C192.968 45.2813 192.989 45.036 193.032 44.78C193.074 44.5027 193.149 44.204 193.256 43.884C193.426 43.4573 193.629 42.9987 193.864 42.508C194.098 42.0173 194.482 41.3453 195.016 40.492C195.165 40.2573 195.25 40.076 195.272 39.948C195.314 39.82 195.336 39.7133 195.336 39.628C195.336 39.372 195.218 39.244 194.984 39.244C194.792 39.244 194.504 39.3507 194.12 39.564C193.757 39.7773 193.298 40.1507 192.744 40.684C192.21 41.196 191.57 41.9213 190.824 42.86C190.098 43.7987 189.256 45.1853 188.296 47.02C188.146 47.2973 187.976 47.4467 187.784 47.468C187.613 47.4893 187.368 47.5107 187.048 47.532C186.834 47.5533 186.632 47.564 186.44 47.564C186.248 47.5853 186.088 47.6493 185.96 47.756ZM205.188 47.596C204.698 47.596 204.26 47.4573 203.876 47.18C203.514 46.9027 203.332 46.3373 203.332 45.484C203.332 45.1213 203.354 44.78 203.396 44.46C203.46 44.14 203.535 43.7987 203.62 43.436C203.428 43.756 203.162 44.1507 202.82 44.62C202.479 45.0893 202.095 45.548 201.668 45.996C201.263 46.444 200.836 46.8173 200.388 47.116C199.962 47.4147 199.556 47.564 199.172 47.564C198.618 47.564 198.17 47.3187 197.828 46.828C197.487 46.316 197.316 45.6547 197.316 44.844C197.316 43.9693 197.519 43.0307 197.924 42.028C198.33 41.0253 198.884 40.0653 199.588 39.148C200.292 38.2307 201.103 37.484 202.02 36.908C202.938 36.332 203.898 36.044 204.9 36.044C205.391 36.044 205.86 36.1293 206.308 36.3C206.756 36.4493 207.151 36.7053 207.492 37.068C207.642 37.2173 207.716 37.388 207.716 37.58C207.716 37.708 207.663 37.8147 207.556 37.9C207.45 37.9853 207.311 38.0067 207.14 37.964C206.906 37.2173 206.404 36.844 205.636 36.844C205.274 36.844 204.858 36.9613 204.388 37.196C203.812 37.4947 203.194 37.9747 202.532 38.636C201.892 39.276 201.284 40.012 200.708 40.844C200.154 41.6547 199.695 42.476 199.332 43.308C198.97 44.14 198.788 44.8973 198.788 45.58C198.788 46.284 199.055 46.636 199.588 46.636C200.058 46.636 200.538 46.412 201.028 45.964C201.54 45.516 202.02 44.9613 202.468 44.3C202.938 43.6173 203.364 42.9453 203.748 42.284C204.132 41.6227 204.431 41.0893 204.644 40.684C204.964 40.108 205.263 39.628 205.54 39.244C205.818 38.86 206.212 38.668 206.724 38.668C206.959 38.668 207.194 38.7 207.428 38.764C207.663 38.828 207.908 38.8387 208.164 38.796C207.524 39.436 206.959 40.1933 206.468 41.068C205.999 41.9427 205.636 42.8067 205.38 43.66C205.124 44.492 204.996 45.196 204.996 45.772C204.996 46.412 205.21 46.732 205.636 46.732C205.978 46.732 206.34 46.54 206.724 46.156C207.13 45.772 207.514 45.292 207.876 44.716C208.26 44.1187 208.612 43.5213 208.932 42.924C209.252 42.3053 209.508 41.772 209.7 41.324C209.807 41.324 209.892 41.3347 209.956 41.356C210.042 41.3773 210.084 41.4627 210.084 41.612C210.063 41.6973 210.02 41.7933 209.956 41.9C209.914 41.9853 209.839 42.1453 209.732 42.38C209.562 42.7213 209.327 43.18 209.028 43.756C208.73 44.332 208.378 44.9187 207.972 45.516C207.567 46.092 207.13 46.5827 206.66 46.988C206.191 47.3933 205.7 47.596 205.188 47.596ZM215.441 47.5C214.716 47.5 214.182 47.2547 213.841 46.764C213.5 46.2733 213.329 45.6973 213.329 45.036C213.329 44.844 213.34 44.652 213.361 44.46C213.382 44.2467 213.425 44.0333 213.489 43.82C213.19 44.2893 212.838 44.812 212.433 45.388C212.049 45.9427 211.601 46.4333 211.089 46.86C210.598 47.2653 210.044 47.468 209.425 47.468C209.148 47.468 208.828 47.404 208.465 47.276C208.124 47.148 207.814 46.9027 207.537 46.54C207.281 46.1773 207.153 45.644 207.153 44.94C207.153 44.0227 207.356 43.052 207.761 42.028C208.166 41.004 208.721 40.044 209.425 39.148C210.129 38.2307 210.929 37.4947 211.825 36.94C212.721 36.364 213.649 36.076 214.609 36.076C215.377 36.076 216.102 36.2787 216.785 36.684C217.105 36.0867 217.446 35.4253 217.809 34.7C218.172 33.9533 218.534 33.2173 218.897 32.492C219.26 31.7667 219.58 31.1053 219.857 30.508C220.134 29.8893 220.348 29.42 220.497 29.1C220.817 28.3533 221.116 27.884 221.393 27.692C221.692 27.4787 222.044 27.372 222.449 27.372C222.684 27.372 222.94 27.404 223.217 27.468C223.516 27.5107 223.804 27.5213 224.081 27.5C223.974 27.6067 223.729 27.9587 223.345 28.556C222.961 29.1533 222.492 29.932 221.937 30.892C221.382 31.8307 220.785 32.8653 220.145 33.996C219.526 35.1267 218.908 36.2893 218.289 37.484C217.692 38.6573 217.137 39.788 216.625 40.876C216.113 41.964 215.708 42.924 215.409 43.756C215.11 44.588 214.961 45.2173 214.961 45.644C214.961 45.9213 215.025 46.1667 215.153 46.38C215.281 46.572 215.494 46.668 215.793 46.668C216.198 46.668 216.614 46.4653 217.041 46.06C217.468 45.6547 217.873 45.1533 218.257 44.556C218.662 43.9373 219.014 43.34 219.313 42.764C219.633 42.1667 219.868 41.6867 220.017 41.324C220.273 41.324 220.401 41.42 220.401 41.612C220.209 42.06 219.953 42.6147 219.633 43.276C219.313 43.9373 218.94 44.588 218.513 45.228C218.086 45.868 217.606 46.412 217.073 46.86C216.561 47.2867 216.017 47.5 215.441 47.5ZM209.649 46.54C209.948 46.54 210.321 46.38 210.769 46.06C211.217 45.7187 211.697 45.1853 212.209 44.46C212.806 43.6067 213.489 42.54 214.257 41.26C215.025 39.98 215.782 38.6253 216.529 37.196C216.38 37.068 216.22 36.972 216.049 36.908C215.878 36.844 215.644 36.812 215.345 36.812C214.854 36.812 214.31 37.0253 213.713 37.452C213.137 37.8573 212.55 38.3907 211.953 39.052C211.377 39.7133 210.844 40.428 210.353 41.196C209.884 41.964 209.5 42.7107 209.201 43.436C208.924 44.14 208.785 44.748 208.785 45.26C208.785 46.1133 209.073 46.54 209.649 46.54ZM225.363 47.596C224.873 47.596 224.435 47.4573 224.051 47.18C223.689 46.9027 223.507 46.3373 223.507 45.484C223.507 45.1213 223.529 44.78 223.571 44.46C223.635 44.14 223.71 43.7987 223.795 43.436C223.603 43.756 223.337 44.1507 222.995 44.62C222.654 45.0893 222.27 45.548 221.843 45.996C221.438 46.444 221.011 46.8173 220.563 47.116C220.137 47.4147 219.731 47.564 219.347 47.564C218.793 47.564 218.345 47.3187 218.003 46.828C217.662 46.316 217.491 45.6547 217.491 44.844C217.491 43.9693 217.694 43.0307 218.099 42.028C218.505 41.0253 219.059 40.0653 219.763 39.148C220.467 38.2307 221.278 37.484 222.195 36.908C223.113 36.332 224.073 36.044 225.075 36.044C225.566 36.044 226.035 36.1293 226.483 36.3C226.931 36.4493 227.326 36.7053 227.667 37.068C227.817 37.2173 227.891 37.388 227.891 37.58C227.891 37.708 227.838 37.8147 227.731 37.9C227.625 37.9853 227.486 38.0067 227.315 37.964C227.081 37.2173 226.579 36.844 225.811 36.844C225.449 36.844 225.033 36.9613 224.563 37.196C223.987 37.4947 223.369 37.9747 222.707 38.636C222.067 39.276 221.459 40.012 220.883 40.844C220.329 41.6547 219.87 42.476 219.507 43.308C219.145 44.14 218.963 44.8973 218.963 45.58C218.963 46.284 219.23 46.636 219.763 46.636C220.233 46.636 220.713 46.412 221.203 45.964C221.715 45.516 222.195 44.9613 222.643 44.3C223.113 43.6173 223.539 42.9453 223.923 42.284C224.307 41.6227 224.606 41.0893 224.819 40.684C225.139 40.108 225.438 39.628 225.715 39.244C225.993 38.86 226.387 38.668 226.899 38.668C227.134 38.668 227.369 38.7 227.603 38.764C227.838 38.828 228.083 38.8387 228.339 38.796C227.699 39.436 227.134 40.1933 226.643 41.068C226.174 41.9427 225.811 42.8067 225.555 43.66C225.299 44.492 225.171 45.196 225.171 45.772C225.171 46.412 225.385 46.732 225.811 46.732C226.153 46.732 226.515 46.54 226.899 46.156C227.305 45.772 227.689 45.292 228.051 44.716C228.435 44.1187 228.787 43.5213 229.107 42.924C229.427 42.3053 229.683 41.772 229.875 41.324C229.982 41.324 230.067 41.3347 230.131 41.356C230.217 41.3773 230.259 41.4627 230.259 41.612C230.238 41.6973 230.195 41.7933 230.131 41.9C230.089 41.9853 230.014 42.1453 229.907 42.38C229.737 42.7213 229.502 43.18 229.203 43.756C228.905 44.332 228.553 44.9187 228.147 45.516C227.742 46.092 227.305 46.5827 226.835 46.988C226.366 47.3933 225.875 47.596 225.363 47.596Z" fill="#F92728"/>
<defs>
<clipPath id="clip0_16_59">
<rect width="228" height="30" fill="white" transform="translate(0 0.5)"/>
</clipPath>
</defs>
</svg>
